# This file uses meters as units for non-parametric coordinates.

mtllib A_Crystal.mtl
g default
v 0.000000 800.000000 0.000000
v 174.811234 1089.125366 174.811234
v 174.811234 1089.125366 -174.811234
v -174.811234 1089.125366 174.811234
v -174.811234 1089.125366 -174.811234
v 104.613297 1206.509033 104.613297
v 104.613297 1206.509033 -104.613297
v -104.613297 1206.509033 -104.613297
v -104.613297 1206.509033 104.613297
v 0.000000 1089.125366 -265.991669
v 0.000000 1089.125366 265.991669
v 0.000000 1206.509033 -159.178925
v 0.000000 1206.509033 159.178940
vt 0.675578 0.866030
vt 0.324422 0.866030
vt 0.232841 0.866030
vt 0.767159 0.866030
vt 0.500000 0.183763
vt 0.793395 0.669018
vt 0.206605 0.669018
vt 0.946429 0.669018
vt 0.793395 0.669018
vt 0.206605 0.669018
vt 0.946429 0.669018
vt 0.675578 0.866030
vt 0.324422 0.866030
vt 0.232841 0.866030
vt 0.767159 0.866030
vt 0.500000 0.183763
vt 0.053571 0.669018
vt 0.053571 0.669018
vt 0.324422 0.866030
vt 0.675578 0.866030
vt 0.767159 0.866030
vt 0.232841 0.866030
vn 0.000000 1.000000 -0.000000
vn 0.000000 1.000000 -0.000000
vn 0.000000 1.000000 -0.000000
vn 0.000000 1.000000 -0.000000
vn 0.855743 -0.517400 -0.000000
vn 0.855743 -0.517400 -0.000000
vn 0.855743 -0.517400 -0.000000
vn -0.000000 -0.677052 -0.735936
vn -0.000000 -0.677052 -0.735936
vn 0.358364 -0.632083 -0.687056
vn -0.855743 -0.517400 0.000000
vn -0.855743 -0.517400 0.000000
vn -0.855743 -0.517400 0.000000
vn -0.000000 -0.677052 0.735936
vn -0.000000 -0.677052 0.735936
vn -0.358364 -0.632083 0.687056
vn 0.858241 0.513246 -0.000000
vn 0.858241 0.513246 -0.000000
vn 0.858241 0.513246 -0.000000
vn 0.858241 0.513246 -0.000000
vn 0.359929 0.627913 -0.690056
vn 0.359929 0.627913 -0.690056
vn 0.359929 0.627913 -0.690056
vn 0.359929 0.627913 -0.690056
vn -0.858241 0.513246 0.000000
vn -0.858241 0.513246 0.000000
vn -0.858241 0.513246 0.000000
vn -0.858241 0.513246 0.000000
vn -0.359929 0.627913 0.690056
vn -0.359929 0.627913 0.690056
vn -0.359929 0.627913 0.690056
vn -0.359929 0.627913 0.690056
vn 0.000000 1.000000 -0.000000
vn 0.000000 1.000000 -0.000000
vn 0.000000 1.000000 -0.000000
vn 0.000000 1.000000 -0.000000
vn -0.359929 0.627913 -0.690056
vn -0.359929 0.627913 -0.690056
vn -0.359929 0.627913 -0.690056
vn -0.359929 0.627913 -0.690056
vn 0.359929 0.627913 0.690056
vn 0.359929 0.627913 0.690056
vn 0.359929 0.627913 0.690056
vn 0.359929 0.627913 0.690056
vn -0.000000 -0.677052 -0.735936
vn -0.358364 -0.632083 -0.687056
vn -0.000000 -0.677052 -0.735936
vn -0.000000 -0.677052 0.735936
vn 0.358364 -0.632083 0.687056
vn -0.000000 -0.677052 0.735936
s off
g A_Crystal
usemtl lambert2SG
f 6/1/1 7/2/2 12/3/3 13/4/4
f 1/5/5 3/6/6 2/7/7
f 1/5/8 10/8/9 3/6/10
f 1/16/11 4/9/12 5/10/13
f 1/16/14 11/11/15 4/9/16
f 2/7/17 3/6/18 7/20/19 6/19/20
f 3/6/21 10/8/22 12/21/23 7/20/24
f 5/10/25 4/9/26 9/12/27 8/13/28
f 4/9/29 11/11/30 13/15/31 9/12/32
f 12/14/33 8/13/34 9/12/35 13/15/36
f 10/17/37 5/10/38 8/13/39 12/14/40
f 11/18/41 2/7/42 6/19/43 13/22/44
f 1/16/45 5/10/46 10/17/47
f 1/5/48 2/7/49 11/18/50
g default
v -76.477097 16.115612 981.802917
v -76.476379 16.116064 -999.497498
v -76.475876 2029.764038 981.803406
v -76.475143 2029.764404 -999.497070
v 194.358841 706.147278 290.332306
v 194.359192 706.147461 -643.230408
v 194.359421 1654.951904 290.332489
v 194.359772 1654.952148 -643.230225
vt 0.000000 0.000000
vt 1.000000 0.000000
vt 0.000000 1.000000
vt 1.000000 1.000000
vt 1.000000 1.000000
vt 0.000000 1.000000
vt 0.000000 0.000000
vt 1.000000 0.000000
vn 1.000000 -0.000001 0.000000
vn 1.000000 -0.000001 0.000000
vn 1.000000 -0.000001 0.000000
vn 1.000000 -0.000001 0.000000
vn 1.000000 -0.000001 0.000000
vn 1.000000 -0.000001 0.000000
vn 1.000000 -0.000001 0.000000
vn 1.000000 -0.000001 0.000000
s off
g Shadow
usemtl lambert3SG
f 17/26/51 16/25/52 14/23/53 15/24/54
f 21/27/55 20/28/56 18/29/57 19/30/58
